<?xml version="1.0" encoding="utf-8"?>
<!-- Generator: Adobe Illustrator 22.0.1, SVG Export Plug-In . SVG Version: 6.00 Build 0)  -->
<svg version="1.1" id="Capa_1" xmlns="http://www.w3.org/2000/svg" xmlns:xlink="http://www.w3.org/1999/xlink" x="0px" y="0px"
	 viewBox="0 0 600 600" style="enable-background:new 0 0 600 600;" xml:space="preserve">
<style type="text/css">
	.st0{fill:url(#SVGID_1_);}
	.st1{fill:url(#SVGID_2_);}
	.st2{opacity:0.15;fill:#FFFFFF;enable-background:new    ;}
	.st3{fill:url(#SVGID_3_);}
	.st4{opacity:0.75;fill:#FFFFFF;enable-background:new    ;}
	.st5{fill:url(#SVGID_4_);}
	.st6{fill:url(#SVGID_5_);}
	.st7{opacity:0.76;fill:#FFFFFF;enable-background:new    ;}
	.st8{fill:url(#SVGID_6_);}
	.st9{fill:url(#SVGID_7_);stroke:url(#SVGID_8_);stroke-width:4.5801;stroke-miterlimit:10;}
	.st10{fill:url(#SVGID_9_);}
	.st11{fill:url(#SVGID_10_);}
	.st12{fill:url(#SVGID_11_);}
	.st13{fill:url(#SVGID_12_);}
	.st14{opacity:0.4;fill:#FFFFFF;}
	.st15{fill:url(#SVGID_13_);}
	.st16{fill:url(#SVGID_14_);}
	.st17{opacity:0.2;fill:#FFFFFF;enable-background:new    ;}
	.st18{fill:url(#SVGID_15_);}
</style>
<g>
	
		<linearGradient id="SVGID_1_" gradientUnits="userSpaceOnUse" x1="-721.7394" y1="1185.1156" x2="-721.7394" y2="825.4542" gradientTransform="matrix(0.9977 -6.775613e-02 -6.775613e-02 -0.9977 1109.7096 1359.6244)">
		<stop  offset="0" style="stop-color:#222222"/>
		<stop  offset="1" style="stop-color:#111111"/>
	</linearGradient>
	<path class="st0" d="M584.8,474.8L125.1,599.7l-75-262.4l469.8-124.9l72.5,252.4C592.3,469.8,589.8,474.8,584.8,474.8z
		 M132.6,589.7l449.8-119.9l-70-244.9L62.6,344.8L132.6,589.7z"/>
	
		<linearGradient id="SVGID_2_" gradientUnits="userSpaceOnUse" x1="-722.078" y1="1178.5928" x2="-722.078" y2="830.8884" gradientTransform="matrix(0.9977 -6.775613e-02 -6.775613e-02 -0.9977 1109.7096 1359.6244)">
		<stop  offset="0" style="stop-color:#444444"/>
		<stop  offset="1" style="stop-color:#232323"/>
	</linearGradient>
	<polygon class="st1" points="55.1,342.3 514.9,219.9 587.3,469.8 127.6,594.7 	"/>
	<path class="st2" d="M587.3,469.8L127.6,594.7L55.1,342.3l459.8-122.4L587.3,469.8z M130.1,587.2l449.8-119.9l-70-242.4L60.1,344.8
		L130.1,587.2z"/>
	<g>
		
			<linearGradient id="SVGID_3_" gradientUnits="userSpaceOnUse" x1="170.1215" y1="596.8701" x2="170.1215" y2="520.5789" gradientTransform="matrix(0.9634 -0.2681 -0.2681 -0.9634 264.5894 830.2036)">
			<stop  offset="0" style="stop-color:#222222"/>
			<stop  offset="1" style="stop-color:#111111"/>
		</linearGradient>
		<polygon class="st3" points="520.3,219.9 57.6,342.3 37.6,274.8 500.3,149.9 		"/>
		<polygon class="st4" points="67.6,264.8 60.1,344.8 92.6,334.8 100.2,254.8 		"/>
		<polygon class="st4" points="145.2,242.3 140.2,322.3 170.2,314.8 180.2,234.9 		"/>
		<polygon class="st4" points="225.2,219.9 217.7,299.8 250.2,292.3 257.7,212.4 		"/>
		<polygon class="st4" points="302.7,199.9 295.2,279.8 327.7,272.3 335.2,192.4 		"/>
		<polygon class="st4" points="382.8,179.9 375.3,259.8 407.8,249.8 415.3,169.9 		"/>
		<polygon class="st4" points="462.8,157.4 457.8,237.3 487.8,229.9 495.3,149.9 		"/>
		<path class="st2" d="M517.8,219.9L57.6,344.8l-20-69.9l460.2-124.9L517.8,219.9z M60.1,337.3l452.7-122.4l-17.5-59.9L42.6,277.3
			L60.1,337.3z"/>
		
			<linearGradient id="SVGID_4_" gradientUnits="userSpaceOnUse" x1="-755.8738" y1="1253.2002" x2="-755.8738" y2="1080.4683" gradientTransform="matrix(0.9977 -6.775613e-02 -6.775613e-02 -0.9977 1109.7096 1359.6244)">
			<stop  offset="0" style="stop-color:#111111"/>
			<stop  offset="1" style="stop-color:#101010"/>
		</linearGradient>
		<path class="st5" d="M522.8,222.4L52.6,347.3l-22.5-77.4l470.2-124.9L522.8,222.4z M57.6,342.3l460.2-124.9l-20-67.4L37.6,274.8
			L57.6,342.3z"/>
	</g>
	<g>
		
			<linearGradient id="SVGID_5_" gradientUnits="userSpaceOnUse" x1="154.5339" y1="-407.8287" x2="154.5339" y2="-487.5453" gradientTransform="matrix(0.8819 -0.4715 -0.4715 -0.8819 -111.3327 -174.9366)">
			<stop  offset="0" style="stop-color:#222222"/>
			<stop  offset="1" style="stop-color:#111111"/>
		</linearGradient>
		<polygon class="st6" points="464.9,70 42.6,287.4 7.6,224.9 429.9,5 		"/>
		<polygon class="st7" points="37.6,204.9 50.1,284.9 80.1,269.9 67.6,189.9 		"/>
		<polygon class="st7" points="110.1,167.4 122.6,247.4 152.5,232.4 140.1,152.4 		"/>
		<polygon class="st7" points="182.5,129.9 195,209.9 225,194.9 212.5,114.9 		"/>
		<polygon class="st7" points="255,95 265,174.9 295,159.9 285,80 		"/>
		<polygon class="st7" points="327.5,57.5 340,134.9 367.4,119.9 357.4,40 		"/>
		<polygon class="st7" points="399.9,20 412.4,99.9 439.9,82.5 429.9,2.5 		"/>
		
			<linearGradient id="SVGID_6_" gradientUnits="userSpaceOnUse" x1="-566.4893" y1="263.5878" x2="-566.4893" y2="93.9478" gradientTransform="matrix(0.959 -0.2834 -0.2834 -0.959 828.7545 157.725)">
			<stop  offset="0" style="stop-color:#111111"/>
			<stop  offset="1" style="stop-color:#101010"/>
		</linearGradient>
		<path class="st8" d="M469.9,72.5L40.1,292.3l-40-70L429.9,0L469.9,72.5z M42.6,287.4L462.4,70l-35-62.5L7.6,224.9L42.6,287.4z"/>
		<path class="st2" d="M462.4,70L42.6,287.4l-35-62.5L427.4,7.5L462.4,70z M45.1,279.9L457.4,67.5l-30-55L15.1,227.4L45.1,279.9z"/>
	</g>
	<g>
		<polygon class="st4" points="287.5,484.8 337.5,434.8 387.4,384.8 315,367.3 245,349.8 269.3,417.3 		"/>
		
			<linearGradient id="SVGID_7_" gradientUnits="userSpaceOnUse" x1="-779.051" y1="985.8013" x2="-626.1909" y2="985.8013" gradientTransform="matrix(0.9974 -7.215116e-02 -7.215116e-02 -0.9974 1092.2604 1346.8931)">
			<stop  offset="0" style="stop-color:#222222"/>
			<stop  offset="1" style="stop-color:#111111"/>
		</linearGradient>
		
			<linearGradient id="SVGID_8_" gradientUnits="userSpaceOnUse" x1="-67.9176" y1="57.2311" x2="79.1217" y2="57.2311" gradientTransform="matrix(0.964 -0.2658 -0.2658 -0.964 337.9067 457.0301)">
			<stop  offset="0" style="stop-color:#222222"/>
			<stop  offset="1" style="stop-color:#111111"/>
		</linearGradient>
		<path class="st9" d="M317.5,364.8l-77.5-20l22.5,75l22.5,72.5l55-55l55-55L317.5,364.8z M337.5,434.8l-50,50l-20-65l-22.5-70
			l70,17.5l72.5,17.5L337.5,434.8z"/>
		<path class="st2" d="M335.8,433.2l-47.2,47.5l-19.3-63.4l-20.8-64.1l66.4,16.6l67.9,16.3L335.8,433.2z M315,367.3l-70-17.5
			l20,67.5l22.8,69.5l50.6-52l52-50.6L315,367.3z"/>
	</g>
	<g>
		<radialGradient id="SVGID_9_" cx="52.3326" cy="283.8373" r="28.185" gradientUnits="userSpaceOnUse">
			<stop  offset="0" style="stop-color:#444444"/>
			<stop  offset="1" style="stop-color:#232323"/>
		</radialGradient>
		<circle class="st10" cx="52.3" cy="283.8" r="28.2"/>
		<linearGradient id="SVGID_10_" gradientUnits="userSpaceOnUse" x1="19.0896" y1="283.8373" x2="85.5755" y2="283.8373">
			<stop  offset="0" style="stop-color:#222222"/>
			<stop  offset="1" style="stop-color:#111111"/>
		</linearGradient>
		<path class="st11" d="M52.3,255.7c15.6,0,28.2,12.6,28.2,28.2c0,15.6-12.6,28.2-28.2,28.2s-28.2-12.6-28.2-28.2
			C24.1,268.3,36.8,255.7,52.3,255.7 M52.3,250.6c-18.3,0-33.2,14.9-33.2,33.2c0,18.3,14.9,33.2,33.2,33.2s33.2-14.9,33.2-33.2
			C85.6,265.5,70.7,250.6,52.3,250.6L52.3,250.6z"/>
		<path class="st2" d="M52.3,259.7c13.3,0,24.1,10.8,24.1,24.1c0,13.3-10.8,24.1-24.1,24.1s-24.1-10.8-24.1-24.1
			C28.2,270.5,39,259.7,52.3,259.7 M52.3,255.7c-15.6,0-28.2,12.6-28.2,28.2c0,15.6,12.6,28.2,28.2,28.2s28.2-12.6,28.2-28.2
			C80.5,268.3,67.9,255.7,52.3,255.7L52.3,255.7z"/>
	</g>
</g>
<g>
	<linearGradient id="SVGID_11_" gradientUnits="userSpaceOnUse" x1="414.9359" y1="379.0248" x2="559.6395" y2="379.0248">
		<stop  offset="0" style="stop-color:#676B6E"/>
		<stop  offset="1" style="stop-color:#454647"/>
	</linearGradient>
	<path class="st12" d="M487.3,502.7L487.3,502.7c-40,0-72.4-32.4-72.4-72.4V327.7c0-40,32.4-72.4,72.4-72.4h0
		c40,0,72.4,32.4,72.4,72.4v102.7C559.6,470.3,527.2,502.7,487.3,502.7z"/>
	
		<linearGradient id="SVGID_12_" gradientUnits="userSpaceOnUse" x1="487.2877" y1="377.6854" x2="487.2877" y2="65.6273" gradientTransform="matrix(1 0 0 -1 0 602)">
		<stop  offset="0" style="stop-color:#CFD5D9"/>
		<stop  offset="1" style="stop-color:#A0A2A4"/>
	</linearGradient>
	<path class="st13" d="M515.8,402.5v-20.6h43.8V369h-43.8v-20.6h43.8v-12.9h-43.8v-20.6h42.8c-8.4-39.1-37.4-59.9-70.9-59.9h-0.5
		c-36.1,0-65.9,26.4-71.1,59.9h40.5v20.6H415v12.9h41.6V369H415v12.9h41.6v20.6H415v25.8c-0.3,42.5,31.3,74.7,72.5,74.7l0,0
		c41.6-0.9,72.4-32,72.2-74.7v-25.8H515.8z"/>
	<path class="st14" d="M487.3,260c37.3,0,67.7,30.4,67.7,67.7v102.7c0,37.3-30.4,67.7-67.7,67.7s-67.7-30.4-67.7-67.7V327.7
		C419.6,290.4,450,260,487.3,260 M487.3,255.3L487.3,255.3c-40,0-72.4,32.4-72.4,72.4v102.7c0,40,32.4,72.4,72.4,72.4h0
		c40,0,72.4-32.4,72.4-72.4V327.7C559.6,287.7,527.2,255.3,487.3,255.3L487.3,255.3z"/>
	<linearGradient id="SVGID_13_" gradientUnits="userSpaceOnUse" x1="487.2877" y1="249.6823" x2="487.2877" y2="508.3672">
		<stop  offset="0" style="stop-color:#676B6E"/>
		<stop  offset="1" style="stop-color:#454647"/>
	</linearGradient>
	<path class="st15" d="M487.3,255.3c40,0,72.4,32.4,72.4,72.4v102.7c0,40-32.4,72.4-72.4,72.4h0c-40,0-72.4-32.4-72.4-72.4V327.7
		C414.9,287.7,447.3,255.3,487.3,255.3L487.3,255.3 M487.3,249.7c-43,0-78,35-78,78v102.7c0,43,35,78,78,78c43,0,78-35,78-78V327.7
		C565.3,284.7,530.3,249.7,487.3,249.7L487.3,249.7z"/>
	<g>
		<linearGradient id="SVGID_14_" gradientUnits="userSpaceOnUse" x1="486.25" y1="395.0378" x2="486.25" y2="595.5168">
			<stop  offset="0" style="stop-color:#CB0017"/>
			<stop  offset="1" style="stop-color:#870017"/>
		</linearGradient>
		<path class="st16" d="M578.2,395v17.4h0V429c0,50.7-41.3,92-92,92c-50.7,0-92-41.3-92-92v-6.2v-10.3V395h-17.4v34
			c0,54.1,39.3,99,90.9,107.8v36.4h-35.1v22.2h107.2v-22.2h-35.1v-36.4c51.6-8.8,90.9-53.7,90.9-107.8v-34H578.2z"/>
		<path class="st17" d="M591.3,399.4V429c0,24.9-8.9,49.1-25,68.1c-16,18.7-38.1,31.3-62.2,35.5l-3.6,0.6v3.7v36.4v4.4h4.4h30.7
			v13.5H437v-13.5h30.7h4.4v-4.4v-36.4v-3.7l-3.6-0.6c-24.1-4.1-46.2-16.7-62.2-35.5c-16.2-19-25-43.1-25-68.1v-29.6h8.7v13.1v10.3
			v6.2c0,53.1,43.2,96.3,96.3,96.3c53.1,0,96.3-43.2,96.3-96.3v-16.6l0-4.4v-8.7H591.3 M595.6,395h-17.4v17.4h0V429
			c0,50.7-41.3,92-92,92c-50.7,0-92-41.3-92-92v-6.2v-10.3V395h-17.4v34c0,54.1,39.3,99,90.9,107.8v36.4h-35.1v22.2h107.2v-22.2
			h-35.1v-36.4c51.6-8.8,90.9-53.7,90.9-107.8V395L595.6,395z"/>
	</g>
	<linearGradient id="SVGID_15_" gradientUnits="userSpaceOnUse" x1="486.25" y1="390.6796" x2="486.25" y2="599.875">
		<stop  offset="0" style="stop-color:#A60017"/>
		<stop  offset="1" style="stop-color:#750017"/>
	</linearGradient>
	<path class="st18" d="M595.6,395v34c0,54.1-39.3,99-90.9,107.8v36.4h35.1v22.2H432.6v-22.2h35.1v-36.4
		c-51.6-8.8-90.9-53.7-90.9-107.8v-34h17.4v17.4v10.3v6.2c0,50.7,41.3,92,92,92c50.7,0,92-41.3,92-92v-16.6h0V395H595.6 M600,390.7
		h-4.4h-17.4h-4.4v4.4v17.4v4.4h0V429c0,48.3-39.3,87.6-87.6,87.6c-48.3,0-87.6-39.3-87.6-87.6v-6.2v-10.3V395v-4.4h-4.4h-17.4h-4.4
		v4.4v34c0,27,9.6,53.2,27.1,73.7c16.5,19.4,39,32.7,63.7,37.7v28.5h-30.7h-4.4v4.4v22.2v4.4h4.4h107.2h4.4v-4.4v-22.2v-4.4h-4.4
		h-30.7v-28.5c24.7-5.1,47.2-18.4,63.7-37.7C590.4,482.2,600,456,600,429v-34V390.7L600,390.7z"/>
</g>
</svg>
